name C:\Users\u0101727\Documents\MyRepositories\upper-imu-dc\Results\main_tracking\Case_72\kinematics.mot
datacolumns 43
datarows 9
range 2.80000000 2.96000000
endheader 
time	clav_prot	clav_elev	scapula_abduction	scapula_elevation	scapula_upward_rot	scapula_winging	plane_elv	shoulder_elv	axial_rot	TrapeziusScapula_M/activation	TrapeziusScapula_S/activation	TrapeziusScapula_I/activation	TrapeziusClavicle_S/activation	SerratusAnterior_I/activation	SerratusAnterior_M/activation	SerratusAnterior_S/activation	Rhomboideus_S/activation	Rhomboideus_I/activation	LevatorScapulae/activation	Coracobrachialis/activation	DeltoideusClavicle_A/activation	DeltoideusScapula_P/activation	DeltoideusScapula_M/activation	LatissimusDorsi_S/activation	LatissimusDorsi_M/activation	LatissimusDorsi_I/activation	PectoralisMajorClavicle_S/activation	PectoralisMajorThorax_I/activation	PectoralisMajorThorax_M/activation	TeresMajor/activation	Infraspinatus_I/activation	Infraspinatus_S/activation	PectoralisMinor/activation	TeresMinor/activation	Subscapularis_S/activation	Subscapularis_M/activation	Subscapularis_I/activation	Supraspinatus_P/activation	Supraspinatus_A/activation	TRIlong/activation	BIC_long/activation	BIC_brevis/activation	
          2.80000000	        -18.33872138	         -6.35100913	         -6.99941416	         -4.07360337	          8.76763169	          6.58470153	        -23.25587298	         18.46055353	         42.61120638	          0.25488314	          0.25101602	          0.16641833	          0.29589127	          0.26848495	          0.38055947	          0.27942461	          0.29338017	          0.34597439	          0.38308547	          0.25143051	          0.24592772	          0.28976513	          0.36511438	          0.23538644	          0.21756583	          0.22962207	          0.26267623	          0.23015763	          0.26228262	          0.35215837	          0.26244427	          0.23387331	          0.23579771	          0.25705496	          0.29575813	          0.30833022	          0.32649352	          0.26093938	          0.26231363	          0.33579504	          0.27008585	          0.26104254	
          2.82000000	        -18.38392624	         -6.17828899	         -7.09789883	         -4.10476337	          8.80059505	          6.59520662	        -23.37399793	         18.38373070	         42.60891591	          0.32563923	          0.36596341	          0.23156201	          0.43897210	          0.38172298	          0.51940656	          0.41046008	          0.42937652	          0.47469372	          0.53040947	          0.36513792	          0.35341818	          0.48510655	          0.46203577	          0.36620582	          0.36740442	          0.39518334	          0.38024391	          0.33352472	          0.37448859	          0.51610135	          0.33732131	          0.35839778	          0.34620834	          0.37927082	          0.43536837	          0.44744903	          0.48448249	          0.39305218	          0.37204687	          0.47450340	          0.36557729	          0.36139622	
          2.84000000	        -18.44537867	         -6.20891158	         -7.18521890	         -4.13892858	          8.82596769	          6.61009078	        -23.48554122	         18.30185201	         42.59465826	          0.35837864	          0.40355523	          0.25549690	          0.48352196	          0.40466998	          0.57594032	          0.46154976	          0.47173701	          0.51288325	          0.58240083	          0.40364182	          0.38671519	          0.55200832	          0.49916247	          0.41044127	          0.41393632	          0.44617607	          0.41552462	          0.36891990	          0.40937729	          0.54307523	          0.36483434	          0.39807783	          0.38618353	          0.41753110	          0.47914680	          0.49565700	          0.53860425	          0.43669605	          0.41061095	          0.53268724	          0.38715508	          0.39719958	
          2.86000000	        -18.50471932	         -6.23901284	         -7.27714917	         -4.16829859	          8.83592311	          6.62811146	        -23.58367804	         18.20834119	         42.55920150	          0.37671576	          0.41691843	          0.26592310	          0.49941524	          0.42001364	          0.59780928	          0.48055438	          0.48899648	          0.53533329	          0.60315846	          0.42035872	          0.39914092	          0.57586846	          0.51877161	          0.42831290	          0.43157432	          0.46676372	          0.43178697	          0.38506975	          0.42675396	          0.56429776	          0.37565491	          0.41723739	          0.40384470	          0.43401302	          0.49566545	          0.51313006	          0.55794777	          0.45412519	          0.42629727	          0.55468508	          0.39939995	          0.41190272	
          2.88000000	        -18.56031499	         -6.27011840	         -7.37075322	         -4.19385386	          8.83002870	          6.64960884	        -23.66101902	         18.10849737	         42.49409116	          0.38266957	          0.42251913	          0.27105066	          0.50494727	          0.42883027	          0.60513702	          0.48762119	          0.49575791	          0.54700640	          0.61006133	          0.42720917	          0.40628111	          0.58373512	          0.52865593	          0.43524619	          0.43829263	          0.47477328	          0.43859011	          0.39254786	          0.43458022	          0.57935022	          0.38085682	          0.42673007	          0.41161109	          0.44099232	          0.50157479	          0.51912774	          0.56453215	          0.46101355	          0.43299263	          0.56137336	          0.40529154	          0.41804316	
          2.90000000	        -18.61172746	         -6.30230806	         -7.46366546	         -4.21646056	          8.81126356	          6.67382522	        -23.71068865	         18.00953500	         42.39475390	          0.38568242	          0.42477926	          0.27351508	          0.50613553	          0.43392243	          0.60704803	          0.49023569	          0.49828999	          0.55402737	          0.61218819	          0.42994910	          0.40938039	          0.58660718	          0.53416863	          0.43876567	          0.44160979	          0.47796432	          0.44112091	          0.39764507	          0.43859070	          0.59084212	          0.38547377	          0.43009581	          0.41623443	          0.44373652	          0.50341940	          0.52125599	          0.56666982	          0.46346489	          0.43618207	          0.56281887	          0.40846883	          0.42038521	
          2.92000000	        -18.65907910	         -6.33599744	         -7.55610115	         -4.23639898	          8.77945368	          6.70097734	        -23.72933752	         17.91796916	         42.25996151	          0.38832624	          0.42536811	          0.27453525	          0.50568654	          0.43662808	          0.60693143	          0.49134386	          0.49950697	          0.55910993	          0.61281736	          0.43102049	          0.41100737	          0.58771875	          0.53773765	          0.44101240	          0.44349487	          0.47936535	          0.44190739	          0.40151223	          0.44106083	          0.59982148	          0.38927507	          0.43114700	          0.41964819	          0.44478699	          0.50358850	          0.52193185	          0.56706032	          0.46412089	          0.43777897	          0.56223921	          0.41122644	          0.42101713	
          2.94000000	        -18.70233414	         -6.37137451	         -7.64932616	         -4.25309108	          8.73200867	          6.73175951	        -23.71442249	         17.83982354	         42.08746491	          0.39028467	          0.42512743	          0.27533985	          0.50484466	          0.43782963	          0.60633777	          0.49219053	          0.50025203	          0.56271157	          0.61283981	          0.43104832	          0.41200936	          0.58817493	          0.54068892	          0.44260731	          0.44476147	          0.47991543	          0.44191734	          0.40398032	          0.44265028	          0.60495719	          0.39166449	          0.43205953	          0.42221738	          0.44531081	          0.50302219	          0.52152593	          0.56669342	          0.46415460	          0.43815188	          0.56077663	          0.41333789	          0.42063272	
          2.96000000	        -18.74176942	         -6.40903529	         -7.74453264	         -4.26656257	          8.66731896	          6.76681706	        -23.66241368	         17.78289734	         41.86952026	          0.39164557	          0.42477870	          0.27627971	          0.50387355	          0.43817165	          0.60585135	          0.49325746	          0.50067851	          0.56467290	          0.61242776	          0.43045497	          0.41255934	          0.58846608	          0.54385852	          0.44396849	          0.44586683	          0.48010036	          0.44158953	          0.40549977	          0.44370725	          0.60645188	          0.39372331	          0.43344841	          0.42423991	          0.44592931	          0.50197213	          0.52057599	          0.56586547	          0.46414047	          0.43812901	          0.55944438	          0.41464630	          0.41966585	
